Coordinates
nRows=8
nColumns=24

# SIMM Motion File Header:
name Coordinates
datacolumns 24
datarows 8
otherdata 1
range 1.10000000000000010000 1.10700000000000020000
endheader
time	pelvis_tx	pelvis_ty	pelvis_tz	pelvis_tilt	pelvis_list	pelvis_rotation	hip_flexion_r	hip_adduction_r	hip_rotation_r	knee_angle_r	ankle_angle_r	subtalar_angle_r	mtp_angle_r	hip_flexion_l	hip_adduction_l	hip_rotation_l	knee_angle_l	ankle_angle_l	subtalar_angle_l	mtp_angle_l	lumbar_extension	lumbar_bending	lumbar_rotation
      1.10000000000000010000	      0.57876605215948396000	      1.04001904503090370000	      0.05412676185031534800	      4.81047864086350610000	     -1.86985843547986930000	     -0.99240024737787658000	    -11.40858060366349100000	      3.83707140909313660000	     -2.35337009163304330000	     -6.85345614217163580000	      9.98794252065025210000	      0.17279775991067403000	      1.22989342103315850000	     19.96186003947467200000	     -5.01409409988810490000	     -9.21286034085643560000	    -25.53492681099039900000	     -0.81815993165331569000	     -1.06446438880541860000	     -0.67771565909682530000	    -16.53578899916486800000	      2.93201520601084330000	      2.46876246520027380000
      1.10100000000000000000	      0.57867165629521566000	      1.03988156185450740000	      0.05414662971348897800	      4.80424266794728890000	     -1.90428701338278430000	     -1.00828718357238030000	    -11.49165774384525200000	      3.87112509319456330000	     -2.31704721341601600000	     -6.81267111658095730000	     10.01484542497157200000	      0.16704752587348262000	      1.23193079771923710000	     19.94725309145349400000	     -5.03426129912395660000	     -9.23007856712003340000	    -25.16993042760198000000	     -0.85050176046959802000	     -1.06159232220016380000	     -0.66907862982161515000	    -16.53453302755063000000	      2.95880837648493910000	      2.48619645208264650000
      1.10200000000000010000	      0.57857823481653081000	      1.03974246346970880000	      0.05416566478481241200	      4.79812610564231260000	     -1.93882199963140220000	     -1.02431763251885990000	    -11.57482288675370400000	      3.90516105041559620000	     -2.28044342894312370000	     -6.77226775993871750000	     10.04150566811170500000	      0.16152166470476365000	      1.23431905421510120000	     19.93217123222000700000	     -5.05410117301355030000	     -9.24564678242771090000	    -24.80561784651195700000	     -0.88208549972960137000	     -1.05901726409095030000	     -0.66100592420973814000	    -16.53337726632888400000	      2.98563956159235520000	      2.50362056067937950000
      1.10300000000000020000	      0.57848481333784596000	      1.03960336508491040000	      0.05418469985613584600	      4.79200954333733530000	     -1.97335698588002000000	     -1.04034808146533940000	    -11.65798802966215700000	      3.93919700763662920000	     -2.24383964447023130000	     -6.73186440329647700000	     10.06816591125184100000	      0.15599580353604470000	      1.23670731071096520000	     19.91708937298652100000	     -5.07394104690314320000	     -9.26121499773539010000	    -24.44130526542193800000	     -0.91366923898960462000	     -1.05644220598173690000	     -0.65293321859786124000	    -16.53222150510713500000	      3.01247074669977130000	      2.52104466927611260000
      1.10400000000000010000	      0.57839347911460648000	      1.03946093804255970000	      0.05420199172978507800	      4.78617523988910600000	     -2.00795884463884900000	     -1.05671678159419140000	    -11.74130678177968400000	      3.97299500323196990000	     -2.20670880374119170000	     -6.69249031169475030000	     10.09719837462128200000	      0.15213950211225283000	      1.23505031136558620000	     19.90104283637144900000	     -5.09297650962223170000	     -9.27331415914070160000	    -24.07880329686787800000	     -0.94341807153905233000	     -1.05448975481237730000	     -0.64631503670735813000	    -16.53130874517062000000	      3.03919526553293860000	      2.53844371754893270000
      1.10500000000000000000	      0.57830214489136700000	      1.03931851100020900000	      0.05421928360343431600	      4.78034093644087670000	     -2.04256070339767830000	     -1.07308548172304350000	    -11.82462553389721000000	      4.00679299882730970000	     -2.16957796301215210000	     -6.65311622009302360000	     10.12623083799072500000	      0.14828320068846243000	      1.23339331202020320000	     19.88499629975638100000	     -5.11201197234132020000	     -9.28541332054600940000	    -23.71630132831381500000	     -0.97316690408849849000	     -1.05253730364301790000	     -0.63969685481685634000	    -16.53039598523410100000	      3.06591978436610550000	      2.55584276582175240000
      1.10600000000000010000	      0.57821185889956550000	      1.03917446373415420000	      0.05423573548347401800	      4.77465160982692090000	     -2.07715168864499140000	     -1.08965144362934810000	    -11.90798647110324300000	      4.04041374424052970000	     -2.13217099485360160000	     -6.61434627876878340000	     10.15701005659727200000	      0.14540945229831653000	      1.22884915064683130000	     19.86849595683244400000	     -5.13063330029984770000	     -9.29578482681543860000	    -23.35489128500769600000	     -1.00190350353459200000	     -1.05085746167047200000	     -0.63373910157981228000	    -16.52961141059774200000	      3.09253316684165690000	      2.57324633272843960000
      1.10700000000000020000	      0.57812262113920210000	      1.03902879624439510000	      0.05425134736990416800	      4.76910726004724240000	     -2.11173180038078060000	     -1.10641466731310320000	    -11.99138959339776100000	      4.07385723947161970000	     -2.09448789926554650000	     -6.57618048772204310000	     10.18953603044093000000	      0.14351825694182338000	      1.22141782724544880000	     19.85154180759964100000	     -5.14884049349780780000	     -9.30442867794897490000	    -22.99457316694960000000	     -1.02962786987731890000	     -1.04945022889474160000	     -0.62844177699623227000	    -16.52895502126153800000	      3.11903541295958590000	      2.59065441826899030000
